<?xml version="1.0" standalone="no"?>
<!DOCTYPE svg PUBLIC "-//W3C//DTD SVG 20010904//EN"
 "http://www.w3.org/TR/2001/REC-SVG-20010904/DTD/svg10.dtd">
<svg version="1.0" xmlns="http://www.w3.org/2000/svg"
 width="290.000000pt" height="81.000000pt" viewBox="0 0 290.000000 81.000000"
 preserveAspectRatio="xMidYMid meet">
<metadata>
Created by potrace 1.16, written by Peter Selinger 2001-2019
</metadata>
<g transform="translate(0.000000,81.000000) scale(0.100000,-0.100000)"
fill="#000000" stroke="none">
<path d="M622 670 c-70 -32 -101 -59 -128 -112 -23 -45 -27 -49 -42 -35 -42
36 -129 70 -194 75 -66 5 -165 -5 -154 -15 3 -3 33 -15 68 -27 109 -39 209
-113 281 -209 55 -74 88 -107 100 -100 6 3 7 1 4 -4 -10 -16 37 -42 92 -53 72
-13 138 8 185 60 37 41 51 74 18 43 -11 -10 -17 -21 -16 -24 6 -10 -29 -37
-69 -54 -50 -21 -64 -19 -42 5 17 19 17 19 -6 14 -50 -12 -74 -14 -42 -4 38
12 57 34 21 25 -12 -3 -42 1 -65 9 -22 8 -44 13 -47 10 -3 -2 -4 -1 -2 2 2 3
-7 22 -20 41 -89 132 85 285 242 214 46 -21 71 -51 134 -163 76 -136 147 -188
250 -187 l55 1 -50 8 c-99 14 -158 65 -227 194 -24 44 -57 99 -75 122 -17 23
-29 45 -25 49 3 3 -2 3 -12 -1 -14 -5 -17 -4 -12 5 4 6 4 11 -1 10 -17 -4 -83
14 -83 22 0 6 10 14 23 19 17 7 18 9 5 9 -10 1 -18 5 -18 11 0 5 7 7 15 4 18
-7 37 4 29 18 -4 6 -9 5 -15 -3 -6 -10 -8 -7 -6 8 1 18 6 21 27 18 22 -5 22
-4 5 4 -37 18 -156 12 -203 -9z"/>
<path d="M1330 516 c0 -21 6 -25 33 -28 l32 -3 0 -77 -1 -78 33 0 33 0 0 80 0
80 35 0 c31 0 35 3 35 25 l0 25 -100 0 c-99 0 -100 0 -100 -24z"/>
<path d="M1580 435 l0 -105 30 0 c28 0 30 2 30 40 0 29 4 40 15 40 8 0 24 -18
35 -40 18 -35 25 -40 55 -40 42 0 43 6 10 54 -25 36 -25 36 -5 56 25 25 26 62
2 83 -14 13 -38 17 -95 17 l-77 0 0 -105z"/>
<path d="M1821 455 c5 -109 22 -130 104 -130 82 0 99 21 104 130 l3 85 -36 0
-36 0 0 -80 c0 -76 -1 -80 -24 -86 -40 -10 -46 2 -46 87 l0 79 -36 0 -36 0 3
-85z"/>
<path d="M2090 435 l0 -105 90 0 c83 0 90 2 90 20 0 16 -8 19 -57 22 -50 3
-58 6 -58 23 0 17 8 20 53 23 43 3 52 6 52 22 0 16 -9 19 -52 22 -39 2 -53 7
-53 18 0 11 14 16 58 18 49 3 57 6 57 22 0 18 -7 20 -90 20 l-90 0 0 -105z"/>
<path d="M2320 435 l0 -105 35 0 c30 0 35 4 35 23 1 21 21 57 33 57 4 0 16
-18 27 -40 19 -37 24 -40 60 -40 l40 0 -41 66 -40 67 37 38 38 39 -42 0 c-35
0 -47 -6 -77 -37 l-34 -38 -1 38 c0 36 -1 37 -35 37 l-35 0 0 -105z"/>
<path d="M2590 435 l0 -105 90 0 c83 0 90 1 90 20 0 18 -7 20 -55 20 -52 0
-55 1 -55 25 0 23 3 25 50 25 43 0 50 3 50 20 0 17 -7 20 -50 20 -43 0 -50 3
-50 20 0 18 7 20 55 20 48 0 55 2 55 20 0 19 -7 20 -90 20 l-90 0 0 -105z"/>
<path d="M700 510 c0 -5 -6 -7 -14 -4 -7 3 -25 -9 -40 -26 -19 -23 -26 -42
-26 -73 l1 -42 13 30 c13 31 89 97 84 74 -2 -7 -16 -20 -33 -28 -31 -17 -58
-73 -47 -100 4 -10 9 -3 17 18 21 63 78 80 114 35 12 -15 21 -33 21 -40 0 -7
5 -16 11 -19 7 -5 9 10 7 43 -2 28 -6 48 -9 46 -4 -2 -12 3 -19 11 -7 8 -20
15 -30 15 -9 0 -17 7 -17 15 0 11 4 12 13 4 9 -7 19 -7 33 1 21 11 24 29 6 42
-15 11 -85 10 -85 -2z"/>
</g>
</svg>
