<?xml version="1.0" standalone="no"?>
<!DOCTYPE svg PUBLIC "-//W3C//DTD SVG 20010904//EN"
 "http://www.w3.org/TR/2001/REC-SVG-20010904/DTD/svg10.dtd">
<svg version="1.0" xmlns="http://www.w3.org/2000/svg"
 width="901.000000pt" height="799.000000pt" viewBox="0 0 901.000000 799.000000"
 preserveAspectRatio="xMidYMid meet">
<metadata>
Created by potrace 1.16, written by Peter Selinger 2001-2019
</metadata>
<g transform="translate(0.000000,799.000000) scale(0.100000,-0.100000)"
fill="#000000" stroke="none">
<path d="M440 7878 c0 -57 -3 -186 -5 -288 -3 -102 -9 -401 -15 -665 -6 -264
-13 -567 -16 -673 l-5 -193 138 3 137 3 18 95 c112 618 271 1005 522 1268 172
180 297 227 691 263 68 6 492 13 978 16 l857 5 0 -1304 0 -1304 -45 -22 c-25
-12 -47 -22 -49 -22 -3 0 -32 46 -66 103 -279 468 -632 697 -1078 699 -236 1
-470 -73 -640 -202 -29 -22 -55 -40 -58 -40 -3 0 -2 24 1 54 8 64 -9 184 -35
242 -19 45 -60 74 -102 74 -42 0 -101 -42 -116 -83 -14 -34 -12 -47 17 -171
35 -150 36 -177 17 -291 -12 -73 -18 -87 -72 -159 l-59 -80 -8 83 c-4 45 -14
95 -22 111 -30 59 -129 61 -175 3 -26 -33 -25 -65 1 -139 17 -45 23 -88 25
-179 l4 -120 -44 -50 -43 -49 -11 63 c-29 162 -125 232 -188 136 -16 -25 -16
-30 11 -110 30 -92 30 -137 -2 -226 -13 -38 -26 -52 -69 -79 -114 -69 -293
-104 -409 -80 -163 33 -264 134 -297 295 -13 66 0 152 32 215 22 43 99 116
138 131 41 16 106 13 147 -7 32 -15 85 -70 85 -87 0 -3 -18 -11 -40 -17 -101
-27 -149 -124 -113 -229 24 -73 70 -110 144 -118 154 -15 269 150 242 344 -20
138 -107 260 -228 318 -54 26 -70 29 -160 30 -93 0 -105 -2 -166 -32 -244
-120 -358 -415 -266 -682 59 -168 187 -296 358 -359 l74 -27 4032 -3 4033 -2
5 23 c4 13 5 50 3 83 l-3 59 -710 3 -710 2 67 39 c37 22 108 66 157 99 132 88
254 124 348 104 50 -11 148 -54 253 -112 75 -40 131 -41 171 -1 41 41 40 93
-3 157 -62 93 -219 144 -393 130 l-80 -7 36 38 c20 21 85 106 145 188 138 192
298 355 399 407 86 44 125 54 240 63 81 5 93 9 118 34 37 37 46 95 21 146 -32
69 -126 92 -249 60 -111 -29 -210 -99 -331 -235 -61 -68 -67 -72 -61 -43 50
252 -27 581 -180 770 -39 48 -43 58 -54 143 -14 107 -2 195 35 276 l23 49 31
-100 c54 -174 112 -420 146 -617 l7 -38 124 0 c68 0 126 3 129 8 2 4 1 145 -4
312 -5 168 -12 485 -16 705 -4 220 -8 416 -9 435 -1 19 -2 131 -3 248 l-2 212
-3875 0 -3875 0 0 -102z m6120 -178 c206 -12 373 -32 487 -60 197 -47 368
-178 526 -402 86 -122 84 -116 49 -189 -39 -84 -60 -181 -74 -345 -6 -74 -14
-133 -17 -131 -245 134 -503 151 -740 50 -75 -32 -89 -35 -147 -30 -70 7 -109
23 -170 73 -104 84 -190 99 -246 44 -28 -29 -30 -35 -26 -87 5 -51 9 -61 45
-93 48 -42 120 -67 221 -76 39 -4 72 -9 72 -11 0 -3 -16 -23 -35 -45 -47 -55
-110 -179 -130 -258 -23 -84 -23 -218 -2 -291 50 -170 205 -291 374 -292 61 0
82 4 138 32 106 53 143 135 97 220 -35 64 -108 86 -192 56 -23 -8 -53 -12 -66
-9 -53 13 -87 93 -85 198 1 112 86 247 202 325 182 122 405 128 599 18 l55
-32 -65 -8 c-122 -15 -238 -91 -281 -182 -23 -50 -23 -68 -2 -112 20 -43 66
-73 111 -73 28 0 47 13 117 80 127 121 187 142 282 95 45 -23 54 -33 81 -93
168 -367 67 -817 -256 -1138 -44 -44 -101 -94 -126 -113 l-47 -33 30 61 c89
175 78 371 -26 482 -26 27 -60 53 -77 57 -67 18 -140 -22 -152 -82 -3 -20 4
-65 21 -121 48 -165 48 -260 1 -354 -28 -54 -134 -167 -146 -154 -4 4 -14 27
-24 51 -29 77 -95 168 -174 243 -111 105 -216 163 -379 210 -53 15 -72 27
-128 83 -234 234 -518 360 -840 373 -153 6 -267 -5 -392 -39 -43 -11 -90 -23
-105 -25 l-28 -5 0 1071 0 1071 748 0 c411 0 826 -5 922 -10z m-3890 -2031
c247 -45 502 -212 650 -424 48 -71 140 -248 140 -269 -1 -6 -69 -44 -153 -85
-459 -225 -703 -300 -940 -288 -165 8 -271 50 -356 142 -86 93 -111 212 -70
337 19 61 32 82 78 129 59 59 123 89 189 89 25 0 43 -9 68 -34 41 -41 42 -57
9 -100 -49 -65 -42 -141 20 -195 96 -84 202 -36 246 111 67 220 -71 436 -299
468 -244 33 -504 -163 -567 -431 -17 -75 -19 -196 -4 -271 18 -86 82 -209 144
-274 30 -32 55 -60 55 -61 0 -2 -174 -3 -386 -3 -221 0 -384 4 -382 9 2 5 29
30 61 56 93 75 201 207 383 467 109 157 200 275 259 336 235 247 534 348 855
291z m2979 -204 c35 -9 98 -34 140 -55 78 -39 236 -148 227 -157 -5 -6 -127 9
-281 33 -124 20 -342 74 -455 113 -140 48 -150 53 -145 61 5 9 140 29 220 33
81 4 225 -10 294 -28z m-655 -165 c203 -69 389 -106 845 -169 211 -29 357 -54
367 -62 9 -7 35 -38 58 -69 104 -136 180 -302 192 -424 l7 -66 -676 0 -676 0
32 68 c28 60 31 77 31 157 1 173 -83 330 -228 430 l-56 38 0 64 c0 34 3 63 8
63 4 0 47 -14 96 -30z m1524 -324 c141 -71 240 -179 297 -320 26 -66 22 -73
-57 -111 -40 -19 -84 -35 -98 -35 -25 0 -27 5 -39 67 -18 98 -65 236 -114 336
-23 48 -41 87 -40 87 2 0 25 -11 51 -24z m-1589 -52 c56 -81 75 -191 45 -262
-15 -37 -61 -92 -76 -92 -4 0 -8 88 -8 195 0 107 3 195 8 195 4 0 18 -16 31
-36z m-1356 -272 c20 -70 37 -130 37 -135 0 -4 -140 -7 -310 -7 l-310 0 262
134 c145 74 268 134 274 135 6 0 27 -56 47 -127z"/>
<path d="M474 2947 c-3 -8 -4 -47 -2 -88 l3 -74 705 -3 704 -2 -66 -39 c-37
-22 -100 -62 -141 -90 -101 -70 -185 -103 -277 -109 -68 -4 -84 -1 -155 27
-44 18 -106 47 -138 66 -106 63 -164 69 -213 20 -68 -68 6 -202 142 -256 51
-20 77 -23 196 -24 l137 0 -28 -30 c-16 -16 -70 -88 -122 -160 -274 -381 -439
-505 -668 -505 -85 0 -111 -12 -136 -60 -19 -36 -19 -71 -1 -115 22 -53 67
-75 153 -75 141 0 258 63 404 219 l91 96 -8 -40 c-5 -22 -8 -103 -7 -180 1
-115 6 -158 26 -236 32 -122 79 -223 150 -321 52 -72 57 -84 67 -159 19 -135
-4 -238 -79 -368 -60 -102 -81 -157 -81 -210 0 -58 29 -90 88 -98 152 -20 232
135 258 503 l6 92 67 -33 c225 -110 474 -116 693 -17 53 24 76 29 119 26 78
-6 116 -21 194 -81 76 -58 129 -78 183 -68 54 10 82 45 82 102 0 109 -85 166
-282 188 l-58 6 39 52 c83 112 133 235 146 357 7 76 -13 188 -46 257 -34 71
-112 149 -187 185 -60 30 -75 33 -157 33 -78 0 -97 -4 -140 -27 -76 -40 -107
-78 -113 -136 -10 -110 78 -179 186 -146 69 20 95 18 124 -13 36 -40 51 -93
46 -177 -5 -100 -47 -184 -133 -265 -138 -129 -322 -178 -505 -135 -68 16
-213 81 -206 93 3 4 22 8 43 9 48 3 109 20 148 39 94 48 173 154 161 218 -8
42 -41 84 -79 100 -52 22 -92 4 -166 -73 -110 -115 -195 -141 -285 -88 -48 28
-76 75 -114 192 -113 346 14 771 315 1055 75 70 159 139 152 124 -68 -143 -89
-214 -89 -306 0 -143 100 -299 192 -299 70 0 128 51 128 113 0 13 -9 50 -20
83 -12 32 -27 93 -34 135 -24 139 5 228 110 338 55 58 63 64 69 46 21 -64 81
-169 128 -225 101 -122 229 -206 400 -261 96 -31 106 -37 177 -104 249 -237
515 -352 854 -371 l118 -7 -6 -181 c-10 -278 -25 -502 -41 -601 -26 -164 -80
-287 -165 -375 -71 -74 -136 -115 -230 -144 -157 -50 -242 -58 -625 -65 l-360
-6 0 -135 0 -135 1988 -2 1987 -3 0 140 0 140 -293 0 c-328 0 -490 14 -630 55
-117 34 -173 64 -244 129 -100 93 -159 216 -186 390 -16 99 -25 93 75 57 32
-12 76 -21 99 -21 80 0 124 83 84 160 -16 31 -69 55 -190 84 -39 9 -76 20 -82
24 -7 4 -15 47 -19 98 -6 84 -5 94 15 121 30 40 30 86 0 126 -24 32 -24 36
-27 287 l-3 255 128 44 c70 24 181 67 245 96 l117 53 46 -81 c108 -193 274
-390 420 -499 402 -302 947 -302 1341 -2 l32 25 1 -107 c1 -127 21 -204 64
-240 54 -45 147 -22 182 46 19 36 16 63 -21 212 -27 108 -29 149 -10 260 11
69 18 83 72 155 43 57 60 73 61 58 1 -11 5 -51 8 -89 6 -58 12 -74 35 -98 35
-34 89 -38 137 -8 52 31 54 61 14 195 -16 52 -21 95 -20 166 l1 96 41 51 42
52 11 -55 c25 -124 66 -185 124 -185 15 0 38 8 51 18 29 24 29 65 -2 160 -21
65 -22 78 -11 128 19 92 40 124 106 160 178 97 406 101 543 8 95 -65 147 -167
148 -289 0 -71 -4 -88 -33 -147 -54 -109 -144 -167 -239 -153 -38 5 -56 16
-90 50 -24 23 -43 47 -43 52 0 5 20 14 44 21 111 29 154 148 96 263 -22 43
-54 65 -109 78 -164 36 -298 -143 -263 -349 38 -223 243 -378 448 -341 182 33
351 209 393 409 59 280 -117 583 -384 663 -38 12 -78 25 -87 30 -10 5 -1731 9
-4033 9 -3352 0 -4016 -2 -4021 -13z m1942 -295 c22 -89 48 -163 87 -245 l56
-118 -72 38 c-138 73 -274 237 -293 353 -6 34 -5 35 58 67 34 17 79 32 98 32
l35 1 31 -128z m1324 -222 c0 -220 -4 -350 -10 -350 -5 0 -73 11 -150 25 -78
13 -277 43 -443 66 -166 22 -309 45 -318 49 -28 15 -141 183 -185 275 -44 92
-74 193 -74 253 l0 32 590 0 590 0 0 -350z m1475 313 c14 -88 39 -193 61 -258
13 -38 20 -73 16 -76 -22 -22 -362 -159 -393 -159 -5 0 -9 110 -9 265 l0 265
160 0 159 0 6 -37z m711 -9 c-54 -25 -126 -60 -160 -78 -33 -18 -109 -59 -168
-90 -58 -31 -109 -53 -111 -49 -6 9 -77 247 -77 257 0 3 138 6 308 6 l307 0
-99 -46z m1880 -55 c-112 -108 -199 -216 -341 -424 -191 -281 -294 -397 -438
-488 -152 -98 -289 -144 -462 -154 -338 -19 -679 159 -879 459 -50 77 -126
225 -126 248 0 11 314 166 454 225 384 162 665 193 870 97 85 -40 139 -91 176
-166 102 -206 -18 -456 -226 -474 -60 -5 -95 13 -114 59 -11 26 -10 33 14 67
37 54 42 91 18 144 -35 80 -139 117 -201 71 -136 -101 -131 -366 9 -497 62
-58 113 -83 199 -98 180 -31 373 63 489 236 78 116 97 184 96 341 0 117 -3
137 -27 199 -36 91 -60 129 -126 199 l-54 57 387 0 386 0 -104 -101z m-4656
-649 c166 -20 394 -69 543 -116 47 -15 47 -16 47 -59 l0 -44 -46 -7 c-66 -10
-232 4 -318 26 -87 22 -174 64 -271 131 -116 80 -130 95 -77 85 15 -3 70 -10
122 -16z"/>
</g>
</svg>
