<?xml version="1.0" standalone="no"?>
<!DOCTYPE svg PUBLIC "-//W3C//DTD SVG 20010904//EN"
 "http://www.w3.org/TR/2001/REC-SVG-20010904/DTD/svg10.dtd">
<svg version="1.0" xmlns="http://www.w3.org/2000/svg"
 width="1536.000000pt" height="1554.000000pt" viewBox="0 0 1536.000000 1554.000000"
 preserveAspectRatio="xMidYMid meet">
<metadata>
Created by potrace 1.10, written by Peter Selinger 2001-2011
</metadata>
<g transform="translate(0.000000,1554.000000) scale(0.100000,-0.100000)"
fill="#ffffff" stroke="none">
<path d="M6414 15475 c-15 -11 -54 -14 -175 -15 -121 0 -159 -3 -175 -15 -13
-10 -46 -14 -109 -15 -60 0 -100 -5 -119 -15 -16 -9 -55 -15 -90 -15 -35 0
-73 -7 -90 -15 -15 -8 -50 -15 -76 -15 -27 0 -61 -5 -77 -11 -26 -11 -120 -28
-271 -48 -35 -5 -69 -14 -75 -20 -6 -6 -30 -11 -53 -11 -25 0 -49 -6 -58 -15
-8 -8 -30 -15 -50 -15 -19 0 -41 -7 -50 -15 -8 -8 -28 -15 -43 -15 -16 0 -38
-7 -49 -15 -10 -8 -29 -15 -41 -15 -12 0 -37 -6 -55 -14 -18 -8 -67 -24 -108
-36 -41 -12 -84 -26 -95 -30 -11 -5 -37 -11 -57 -15 -21 -3 -38 -10 -38 -15 0
-6 -12 -10 -28 -10 -15 0 -36 -6 -47 -14 -11 -7 -32 -16 -47 -20 -16 -3 -28
-11 -28 -16 0 -6 -11 -10 -24 -10 -13 0 -29 -7 -36 -15 -7 -8 -21 -15 -32 -15
-11 0 -32 -7 -46 -15 -15 -8 -49 -24 -77 -35 -27 -11 -58 -25 -67 -30 -10 -6
-23 -10 -29 -10 -12 0 -68 -23 -114 -47 -16 -8 -73 -38 -125 -66 -136 -72
-248 -127 -258 -127 -4 0 -17 -7 -27 -15 -37 -29 -127 -85 -136 -85 -5 0 -9
-4 -9 -10 0 -5 -5 -10 -11 -10 -14 0 -133 -71 -137 -82 -2 -4 -12 -8 -22 -8
-10 0 -25 -6 -32 -13 -7 -7 -31 -24 -53 -37 -22 -13 -49 -32 -59 -42 -11 -10
-38 -30 -60 -45 -23 -16 -47 -34 -54 -40 -7 -7 -20 -13 -28 -13 -8 0 -14 -4
-14 -10 0 -5 -5 -10 -10 -10 -10 0 -139 -94 -150 -109 -3 -4 -21 -18 -40 -31
-19 -13 -37 -27 -40 -30 -3 -3 -45 -37 -95 -75 -49 -38 -99 -78 -110 -89 -11
-12 -63 -57 -115 -101 -52 -44 -123 -107 -156 -140 -34 -33 -86 -83 -115 -110
-98 -91 -309 -319 -309 -332 0 -4 -17 -23 -38 -43 -49 -45 -128 -139 -218
-260 -39 -52 -86 -111 -103 -130 -17 -19 -70 -92 -117 -162 -47 -70 -96 -137
-109 -150 -14 -13 -25 -30 -25 -39 0 -9 -7 -22 -15 -29 -8 -7 -15 -19 -15 -26
0 -8 -4 -14 -10 -14 -5 0 -10 -6 -10 -13 0 -8 -14 -33 -30 -56 -17 -23 -35
-52 -40 -64 -11 -24 -32 -59 -41 -67 -3 -3 -16 -23 -29 -45 -13 -22 -30 -46
-37 -53 -7 -7 -13 -20 -13 -27 0 -16 -86 -183 -106 -206 -8 -8 -14 -23 -14
-32 0 -9 -3 -17 -8 -17 -4 0 -18 -24 -32 -52 -13 -29 -30 -59 -37 -66 -7 -7
-13 -22 -13 -32 0 -10 -4 -21 -9 -25 -5 -3 -13 -20 -17 -37 -3 -18 -10 -39
-14 -48 -41 -78 -80 -164 -80 -177 0 -8 -7 -21 -15 -29 -8 -9 -15 -26 -15 -40
0 -13 -4 -24 -10 -24 -5 0 -13 -12 -16 -27 -4 -15 -13 -34 -21 -41 -7 -7 -13
-24 -13 -37 0 -12 -7 -36 -15 -51 -8 -16 -15 -39 -15 -50 0 -12 -7 -35 -15
-50 -8 -16 -15 -37 -15 -47 0 -9 -4 -25 -10 -35 -12 -20 -38 -94 -49 -137 -4
-17 -13 -40 -19 -52 -7 -12 -12 -32 -12 -45 0 -13 -7 -32 -15 -42 -8 -11 -15
-34 -15 -52 0 -17 -7 -37 -15 -44 -8 -7 -15 -29 -15 -49 0 -20 -5 -42 -11 -48
-6 -6 -15 -37 -19 -69 -20 -141 -37 -231 -48 -251 -7 -12 -12 -39 -12 -61 0
-22 -7 -53 -15 -68 -8 -16 -15 -56 -15 -89 0 -37 -6 -68 -15 -79 -10 -13 -15
-44 -15 -85 -1 -42 -6 -73 -15 -85 -11 -14 -15 -47 -15 -115 -1 -69 -5 -102
-15 -115 -12 -16 -15 -57 -15 -198 0 -150 -2 -180 -15 -184 -23 -9 -23 -559 0
-568 13 -4 15 -34 15 -178 0 -134 3 -179 15 -202 10 -19 15 -58 15 -120 0 -61
5 -100 15 -120 9 -16 15 -55 15 -90 0 -39 5 -69 15 -82 8 -11 15 -42 15 -74 0
-30 7 -68 15 -84 8 -15 15 -45 15 -66 0 -22 5 -51 11 -67 11 -26 25 -96 50
-253 6 -36 15 -66 20 -68 5 -2 9 -20 9 -41 0 -20 7 -46 15 -57 8 -10 15 -33
15 -49 0 -17 6 -39 14 -50 7 -11 16 -37 20 -57 4 -21 11 -38 16 -38 6 0 10
-12 10 -26 0 -14 6 -40 14 -57 8 -18 24 -63 36 -102 12 -38 26 -78 31 -87 5
-10 9 -26 9 -35 0 -10 7 -31 15 -47 8 -15 15 -36 15 -45 0 -9 14 -43 30 -76
16 -33 30 -67 30 -76 0 -9 7 -22 15 -29 8 -7 15 -16 15 -21 0 -5 14 -38 30
-72 17 -35 30 -67 30 -71 0 -9 25 -68 46 -109 8 -16 14 -37 14 -48 0 -11 7
-22 15 -25 8 -4 15 -14 15 -24 0 -10 6 -25 13 -32 15 -17 33 -50 113 -208 35
-69 68 -130 74 -137 5 -7 10 -17 10 -24 0 -6 9 -22 20 -36 l20 -26 0 34 c0 19
7 43 15 53 8 11 15 40 15 64 0 25 6 50 15 58 8 9 15 26 15 39 0 20 13 54 42
105 4 8 11 22 14 30 12 30 15 36 42 81 30 52 102 139 115 139 7 0 78 50 113
79 23 19 127 71 143 71 9 0 25 7 35 15 11 8 31 15 44 15 13 0 33 5 45 12 20
11 92 28 195 47 24 4 48 13 54 19 7 7 26 12 43 12 17 0 40 7 51 15 10 8 31 15
45 15 15 0 32 7 39 15 7 8 27 15 46 15 18 0 39 7 48 15 8 8 25 15 38 15 13 0
36 7 52 15 15 8 37 15 48 15 11 0 28 5 40 11 11 6 66 22 121 35 56 13 116 28
133 34 17 5 42 10 55 10 14 0 34 7 45 15 10 8 33 15 50 15 16 0 39 7 50 15 10
8 33 15 51 15 17 0 38 6 45 14 8 7 29 16 48 18 19 3 50 11 68 17 78 27 103 34
197 58 55 14 108 30 117 34 10 5 31 9 47 9 16 0 36 7 45 15 8 8 28 15 45 15
16 0 36 7 45 15 8 8 24 15 36 15 12 0 36 6 53 14 18 8 43 16 57 19 23 5 44 11
130 43 19 6 80 22 135 34 55 12 110 26 123 31 13 5 45 9 72 9 30 0 54 6 64 15
8 8 26 15 40 15 14 0 27 4 30 9 3 5 21 12 40 15 19 4 40 13 46 21 8 9 21 13
32 9 10 -3 30 1 43 10 13 9 34 16 45 16 11 0 39 9 61 21 28 14 44 17 53 10 8
-7 15 -4 24 10 17 27 88 58 132 59 19 0 48 7 64 15 15 8 40 15 55 15 14 0 35
7 45 15 11 8 31 15 46 15 14 0 36 7 48 16 14 10 38 14 69 12 l46 -3 105 -145
c57 -80 134 -190 170 -245 97 -150 328 -372 607 -586 106 -81 245 -155 405
-214 56 -20 167 -44 273 -57 78 -9 123 -9 215 1 130 14 240 35 290 57 18 8 39
14 46 14 23 0 209 86 290 134 144 85 308 218 473 381 132 131 163 168 172 202
7 27 34 66 82 119 39 44 104 126 144 184 118 168 109 160 166 160 32 0 56 -6
65 -15 9 -8 28 -15 43 -15 16 0 34 -7 41 -15 7 -8 27 -15 45 -15 18 0 38 -7
45 -15 7 -8 27 -15 44 -15 18 0 36 -4 41 -9 9 -8 57 -23 168 -51 21 -6 45 -14
55 -19 9 -5 44 -15 77 -23 76 -20 163 -52 178 -67 6 -6 30 -11 54 -11 24 0 60
-7 80 -15 19 -8 59 -15 89 -15 29 0 55 -4 58 -9 3 -4 25 -11 48 -15 57 -9 147
-35 180 -52 14 -8 37 -14 50 -14 12 0 32 -7 42 -15 11 -8 32 -15 47 -15 14 0
32 -7 39 -15 7 -8 27 -15 45 -15 18 0 38 -7 45 -15 7 -8 27 -15 44 -15 18 0
41 -7 52 -15 10 -8 36 -15 57 -15 20 0 37 -4 37 -8 0 -5 28 -14 63 -20 81 -14
168 -36 195 -51 11 -6 30 -11 41 -11 12 0 29 -4 39 -10 25 -14 102 -41 137
-47 17 -3 39 -12 50 -19 11 -8 31 -14 46 -14 15 0 32 -7 39 -15 7 -9 29 -15
51 -15 21 0 40 -4 43 -9 4 -5 25 -12 49 -16 48 -7 226 -59 275 -81 18 -8 42
-14 53 -14 11 0 27 -7 35 -15 9 -8 29 -15 45 -15 17 0 37 -7 45 -15 9 -8 29
-15 45 -15 17 0 37 -7 45 -15 9 -8 28 -15 44 -15 15 0 41 -7 56 -15 16 -8 37
-15 48 -15 24 0 232 -57 274 -76 18 -8 39 -14 46 -14 41 0 216 -117 282 -188
37 -40 104 -164 104 -191 0 -11 5 -23 10 -26 6 -3 10 -19 10 -35 0 -16 7 -35
15 -44 8 -8 15 -26 15 -40 0 -14 5 -28 10 -31 19 -11 70 -143 70 -178 0 -9 3
-17 8 -17 11 0 29 31 113 195 93 184 111 215 127 233 6 7 12 19 12 26 0 8 7
19 15 26 8 7 15 21 15 31 0 11 4 27 10 37 5 9 19 40 30 67 12 28 28 64 36 82
8 17 14 34 14 37 0 7 48 112 91 199 16 31 29 68 29 80 0 13 4 27 8 32 5 6 18
44 31 85 12 41 29 90 37 108 8 18 14 39 14 46 0 8 7 27 15 42 8 16 15 41 15
56 0 14 5 28 10 30 6 2 13 21 17 43 3 22 12 46 20 53 7 7 13 28 13 45 0 18 7
41 15 51 8 11 15 37 15 57 0 21 5 39 12 41 6 2 13 31 16 64 2 32 8 64 12 69 5
6 11 41 15 79 4 38 14 81 21 95 8 14 14 45 14 67 0 23 7 55 15 70 8 16 15 56
15 89 0 37 6 68 15 79 10 13 15 43 15 82 0 35 6 74 15 90 10 20 15 59 15 120
0 62 5 101 15 120 11 22 15 67 15 184 1 120 4 159 15 174 22 29 21 569 0 606
-11 19 -14 66 -15 191 0 129 -3 169 -15 185 -10 13 -14 46 -15 110 0 63 -4 96
-15 110 -9 12 -14 43 -15 90 0 46 -5 77 -15 90 -9 11 -15 42 -15 79 0 33 -7
73 -15 89 -8 15 -15 46 -15 68 0 22 -6 49 -12 61 -11 20 -19 58 -48 247 -6 36
-15 67 -20 68 -6 2 -10 18 -10 36 0 18 -7 41 -15 52 -8 10 -15 33 -15 50 0 16
-7 39 -15 50 -8 10 -15 31 -15 45 0 14 -7 34 -15 45 -8 10 -15 30 -15 42 0 13
-6 38 -14 55 -22 50 -74 208 -81 250 -4 20 -11 37 -16 37 -5 0 -9 9 -9 21 0
11 -6 33 -13 47 -8 15 -21 42 -30 60 -9 19 -17 39 -17 47 0 7 -7 18 -15 25 -8
7 -15 21 -15 31 0 11 -13 43 -28 72 -15 28 -38 81 -51 117 -13 36 -28 69 -33
75 -4 5 -8 17 -8 26 0 10 -6 24 -13 31 -7 7 -24 37 -37 66 -14 28 -28 52 -32
52 -5 0 -8 9 -8 19 0 11 -7 26 -15 35 -15 15 -68 117 -101 194 -10 23 -21 42
-24 42 -4 0 -16 19 -29 43 -12 23 -44 76 -71 117 -44 67 -61 97 -112 191 -7
14 -22 34 -32 44 -10 10 -29 34 -42 54 -14 20 -40 59 -59 86 -19 28 -39 55
-44 62 -6 7 -11 15 -11 18 0 6 -65 91 -80 105 -19 18 -70 90 -70 98 0 6 -6 15
-13 19 -7 4 -48 53 -92 108 -43 55 -100 121 -127 146 -26 26 -48 50 -48 53 0
9 -37 52 -131 150 -179 187 -359 360 -479 457 -35 30 -72 60 -80 69 -25 23
-62 53 -136 111 -38 30 -71 56 -74 59 -3 3 -21 16 -40 29 -19 14 -39 30 -43
38 -4 7 -13 13 -18 13 -6 0 -18 7 -26 16 -29 29 -120 94 -131 94 -6 0 -17 6
-24 13 -7 6 -31 24 -54 40 -22 15 -49 35 -60 45 -33 28 -83 62 -93 62 -5 0
-11 4 -13 8 -3 9 -11 13 -105 62 -26 14 -50 27 -53 30 -10 10 -69 50 -74 50
-8 0 -110 62 -116 71 -3 3 -27 16 -55 28 -75 33 -115 53 -166 84 -25 15 -54
27 -63 27 -9 0 -16 3 -16 8 0 4 -24 18 -52 32 -29 13 -59 30 -66 37 -7 7 -22
13 -32 13 -10 0 -21 4 -25 9 -3 5 -20 13 -37 17 -18 3 -39 10 -48 15 -8 4 -35
16 -60 27 -25 11 -62 27 -83 36 -21 9 -44 16 -52 16 -8 0 -15 4 -15 9 0 5 -10
13 -22 16 -24 7 -73 28 -120 52 -14 7 -35 13 -46 13 -11 0 -33 7 -48 15 -16 8
-37 15 -47 15 -9 0 -25 4 -35 9 -27 15 -146 51 -168 51 -10 0 -28 7 -38 15
-11 8 -31 15 -45 15 -14 0 -35 7 -45 15 -11 8 -33 15 -49 15 -15 0 -35 7 -43
15 -9 8 -30 15 -47 15 -18 0 -41 7 -51 15 -11 8 -38 15 -61 15 -23 0 -46 5
-52 11 -6 6 -37 15 -69 19 -190 28 -252 39 -277 49 -16 6 -48 11 -71 11 -24 0
-60 7 -79 15 -20 8 -61 15 -90 15 -30 0 -71 7 -90 15 -23 9 -69 15 -124 15
-62 1 -94 5 -107 15 -16 12 -54 15 -175 15 -121 1 -160 4 -175 15 -16 12 -72
15 -326 15 -254 0 -310 -3 -326 -15z m448 -1835 c2 -6 21 -13 43 -17 22 -3 44
-12 48 -20 4 -7 21 -13 37 -13 17 0 30 -4 30 -10 0 -5 7 -10 16 -10 9 0 173
-157 365 -350 296 -296 354 -350 378 -350 16 0 48 -7 71 -15 23 -8 57 -15 74
-15 17 0 40 -7 50 -15 11 -8 34 -15 50 -15 17 0 40 -7 50 -15 11 -8 34 -15 52
-15 17 0 37 -7 44 -15 7 -8 26 -15 42 -15 16 0 36 -7 44 -15 9 -8 28 -15 44
-15 15 0 41 -7 56 -15 16 -8 39 -15 52 -15 12 0 64 -20 115 -45 52 -25 97 -45
101 -45 4 0 34 -20 66 -45 32 -25 64 -45 72 -45 7 0 28 -14 47 -30 18 -17 37
-30 41 -30 13 0 90 -84 90 -98 0 -7 7 -15 15 -18 8 -4 15 -10 15 -15 0 -5 8
-18 18 -28 9 -11 22 -26 27 -33 18 -23 45 -102 45 -133 0 -17 6 -48 13 -70 12
-38 13 -54 8 -165 -3 -63 -17 -23 -20 55 -1 41 -8 68 -21 87 -11 15 -20 30
-20 33 0 3 -18 34 -40 69 -141 223 -485 404 -1000 528 -47 11 -106 26 -132 34
-26 8 -56 14 -68 14 -12 0 -49 7 -83 15 -255 60 -639 95 -1043 95 -517 0 -847
-54 -1329 -218 -158 -53 -178 -62 -396 -165 -313 -149 -483 -282 -560 -439
-40 -81 -83 -194 -95 -252 -5 -22 -15 -41 -21 -44 -19 -6 -17 127 2 152 9 12
15 42 15 73 0 29 4 53 10 53 5 0 12 16 16 35 3 19 12 39 20 46 8 6 14 22 14
35 0 12 4 25 9 28 5 3 12 18 16 33 7 31 56 95 103 138 19 17 57 51 86 77 28
26 56 48 62 48 6 0 19 9 29 20 10 11 23 20 28 20 18 0 87 33 87 42 0 4 7 8 15
8 8 0 31 12 52 26 21 14 47 30 58 35 11 5 27 13 35 18 8 5 51 25 95 46 44 20
88 41 97 46 10 5 26 9 35 9 10 0 31 7 47 15 15 8 38 15 51 15 12 0 28 7 35 15
7 8 25 15 40 15 15 0 33 7 40 15 7 8 25 15 39 15 15 0 36 7 47 15 10 8 31 15
45 15 14 0 34 7 45 15 10 8 30 15 42 15 13 0 36 9 50 21 33 26 184 162 273
247 36 35 75 69 85 77 10 7 68 61 129 119 60 58 113 106 116 106 4 0 42 34 84
75 41 41 84 75 94 75 10 0 24 7 31 15 7 8 23 15 35 15 12 0 28 7 35 15 7 8 25
15 39 15 15 0 36 7 47 15 23 17 270 22 276 5z m268 -1785 c323 -49 576 -132
785 -259 327 -197 596 -550 684 -898 22 -86 17 -94 -51 -78 -58 13 -422 13
-1008 -1 -537 -13 -528 -12 -575 -79 -15 -21 -41 -43 -57 -49 -37 -13 -397
-15 -430 -2 -14 5 -32 28 -47 60 -15 34 -30 53 -44 55 -33 7 -703 19 -1157 22
l-405 1 1 24 c3 57 49 190 109 310 100 202 237 363 430 508 111 82 163 114
285 173 216 104 458 172 755 211 159 21 589 22 725 2z m-1036 -1381 c203 -30
273 -58 320 -132 31 -48 49 -163 40 -260 -7 -82 7 -132 37 -132 25 0 39 30 39
84 0 90 90 164 182 150 87 -14 109 -46 163 -229 67 -228 202 -423 367 -529 83
-52 178 -89 314 -120 89 -20 172 -20 289 -1 50 8 115 15 145 15 71 1 184 31
268 72 70 34 201 152 222 199 5 13 21 42 34 65 40 66 116 320 116 385 0 35 18
48 24 17 32 -154 41 -352 21 -486 -44 -306 -85 -459 -178 -652 -55 -115 -242
-415 -295 -472 -61 -66 -127 -118 -149 -118 -7 0 -68 52 -135 115 -119 113
-258 215 -367 270 -61 30 -198 82 -251 95 -19 5 -66 18 -105 30 -67 20 -107
28 -247 50 -35 5 -139 10 -232 10 -209 0 -329 -17 -491 -72 -16 -5 -43 -13
-60 -17 -30 -8 -173 -75 -232 -109 -144 -84 -317 -260 -392 -401 -44 -82 -71
-104 -108 -90 -41 15 -246 164 -304 220 -121 119 -174 239 -247 559 -36 156
-56 271 -76 425 -18 142 -40 454 -33 462 3 3 11 -13 17 -36 6 -22 15 -43 20
-46 6 -3 10 -14 10 -24 0 -27 75 -167 121 -228 127 -164 378 -255 709 -257
174 0 189 3 368 82 192 85 325 194 385 315 36 74 49 133 32 147 -10 8 -25 -6
-63 -62 -118 -170 -151 -205 -242 -254 -19 -10 -42 -24 -50 -30 -8 -6 -26 -14
-40 -17 -14 -3 -40 -10 -57 -16 -82 -28 -105 -33 -220 -46 -108 -13 -138 -13
-245 0 -68 8 -139 20 -158 26 -199 68 -306 162 -395 344 -59 121 -84 228 -91
400 -11 224 4 238 304 286 75 12 191 25 257 30 168 10 538 1 659 -17z m2166
-9 c85 -13 172 -29 193 -35 49 -14 104 -70 112 -114 8 -43 -21 -289 -45 -381
-54 -207 -147 -346 -290 -429 -34 -20 -65 -36 -70 -36 -5 0 -24 -6 -42 -14
-59 -25 -101 -35 -207 -51 -129 -19 -211 -19 -321 0 -102 17 -129 26 -240 79
-193 93 -297 226 -384 491 -10 32 -16 84 -16 141 0 76 4 101 25 147 47 107
132 177 255 208 55 15 125 17 470 18 384 1 413 0 560 -24z m585 -35 c3 -11 9
-20 13 -20 4 0 23 -15 43 -33 20 -17 47 -41 60 -53 37 -32 69 -73 69 -87 0 -7
7 -22 15 -33 8 -10 15 -35 15 -54 0 -19 7 -57 15 -84 20 -64 20 -265 1 -321
-7 -22 -21 -67 -31 -100 -23 -81 -20 -73 -55 -132 -6 -10 -13 -26 -16 -35 -4
-10 -10 -18 -14 -18 -5 0 -15 -12 -23 -27 -8 -16 -28 -54 -44 -86 -30 -57 -30
-57 -51 -40 -21 18 -22 27 -28 398 -3 209 -9 449 -14 534 -8 137 -7 158 8 183
19 33 28 35 37 8z m-4263 -146 c3 -38 11 -112 17 -164 6 -52 11 -147 11 -210
0 -63 5 -155 10 -205 19 -176 24 -393 10 -410 -12 -14 -15 -14 -31 0 -9 9 -23
30 -29 46 -7 16 -16 29 -21 29 -5 0 -9 5 -9 11 0 6 -13 28 -28 48 -16 20 -32
43 -35 51 -4 8 -17 30 -28 49 -39 65 -60 139 -66 233 -17 250 -2 397 49 479
27 44 116 121 132 116 6 -2 14 -35 18 -73z m4225 -1781 c-2 -21 -4 -4 -4 37 0
41 2 58 4 38 2 -21 2 -55 0 -75z m-1644 -17 c234 -35 400 -132 506 -296 64
-99 91 -198 91 -335 0 -179 -48 -306 -152 -402 -58 -53 -108 -78 -184 -93 -50
-10 -66 -9 -96 3 -56 24 -127 125 -184 262 -28 69 -41 93 -82 158 -50 76 -126
141 -198 169 -65 24 -173 24 -244 -1 -151 -53 -181 -87 -282 -324 -47 -112
-71 -151 -122 -205 -74 -78 -135 -88 -243 -37 -61 28 -124 88 -179 171 -49 72
-61 100 -85 189 -24 89 -24 125 0 224 60 250 250 442 510 514 36 10 545 24
739 20 57 -1 149 -9 205 -17z m1649 -72 c-6 -35 -12 -29 -12 14 0 23 3 32 9
24 4 -7 6 -24 3 -38z m-4135 -211 c-2 -21 -4 -6 -4 32 0 39 2 55 4 38 2 -18 2
-50 0 -70z m4100 -155 c-2 -13 -4 -3 -4 22 0 25 2 35 4 23 2 -13 2 -33 0 -45z
m-30 -140 c-2 -13 -4 -5 -4 17 -1 22 1 32 4 23 2 -10 2 -28 0 -40z"/>
</g>
</svg>
